<svg xmlns="http://www.w3.org/2000/svg" width="640" height="480" viewBox="0 0 640 480" font-family="'Segoe UI',Arial,sans-serif">
  <defs>
    <linearGradient id="lowBadge" x1="0" y1="0" x2="1" y2="0"><stop offset="0%" stop-color="#f59e0b"/><stop offset="100%" stop-color="#d97706"/></linearGradient>
    <filter id="sh4"><feDropShadow dx="0" dy="8" stdDeviation="20" flood-color="#000" flood-opacity="0.5"/></filter>
  </defs>

  <!-- Window -->
  <rect width="640" height="480" rx="16" fill="#0b0f1f" filter="url(#sh4)"/>
  <rect width="640" height="44" rx="16" fill="#060812"/>
  <rect y="30" width="640" height="14" fill="#060812"/>
  <!-- Traffic lights -->
  <circle cx="20" cy="22" r="6" fill="#ff5f57"/>
  <circle cx="38" cy="22" r="6" fill="#febc2e"/>
  <circle cx="56" cy="22" r="6" fill="#28c840"/>
  <text x="320" y="27" font-size="12" font-weight="800" fill="rgba(255,255,255,0.7)" text-anchor="middle">GoodyPOS — Inventory</text>

  <!-- Toolbar -->
  <rect x="12" y="54" width="440" height="32" rx="10" fill="#131929" stroke="rgba(255,255,255,0.06)" stroke-width="1"/>
  <text x="26" y="74" font-size="10" fill="#475569">🔍</text>
  <text x="42" y="74" font-size="10" fill="#334155">Search product or scan barcode...</text>
  <rect x="462" y="54" width="80" height="32" rx="10" fill="rgba(99,102,241,0.85)"/>
  <text x="502" y="74" font-size="10" font-weight="800" fill="white" text-anchor="middle">+ Add Product</text>
  <rect x="550" y="54" width="78" height="32" rx="10" fill="#131929" stroke="rgba(255,255,255,0.06)" stroke-width="1"/>
  <text x="589" y="74" font-size="10" font-weight="700" fill="#475569" text-anchor="middle">⬇ Export</text>

  <!-- KPI strip -->
  <rect x="12" y="96" width="140" height="64" rx="12" fill="#131929" stroke="rgba(255,255,255,0.05)" stroke-width="1"/>
  <text x="28" y="116" font-size="8" font-weight="800" fill="#475569" letter-spacing="1">TOTAL PRODUCTS</text>
  <text x="28" y="144" font-size="28" font-weight="900" fill="white">248</text>

  <rect x="160" y="96" width="140" height="64" rx="12" fill="#131929" stroke="rgba(255,255,255,0.05)" stroke-width="1"/>
  <text x="176" y="116" font-size="8" font-weight="800" fill="#475569" letter-spacing="1">ADDED TODAY</text>
  <text x="176" y="144" font-size="28" font-weight="900" fill="#818cf8">12</text>

  <rect x="308" y="96" width="140" height="64" rx="12" fill="#131929" stroke="rgba(255,255,255,0.05)" stroke-width="1"/>
  <text x="324" y="116" font-size="8" font-weight="800" fill="#f59e0b" letter-spacing="1">LOW STOCK</text>
  <text x="324" y="144" font-size="28" font-weight="900" fill="#fbbf24">18</text>

  <rect x="456" y="96" width="172" height="64" rx="12" fill="rgba(239,68,68,0.12)" stroke="rgba(239,68,68,0.25)" stroke-width="1"/>
  <text x="472" y="116" font-size="8" font-weight="800" fill="#f87171" letter-spacing="1">OUT OF STOCK</text>
  <text x="472" y="144" font-size="28" font-weight="900" fill="#f87171">5</text>

  <!-- Table header -->
  <rect x="12" y="170" width="616" height="28" rx="8" fill="#131929"/>
  <text x="24" y="188" font-size="9" font-weight="800" fill="#334155" letter-spacing="1">PRODUCT</text>
  <text x="300" y="188" font-size="9" font-weight="800" fill="#334155" letter-spacing="1">BARCODE</text>
  <text x="400" y="188" font-size="9" font-weight="800" fill="#334155" letter-spacing="1">COST</text>
  <text x="460" y="188" font-size="9" font-weight="800" fill="#334155" letter-spacing="1">PRICE</text>
  <text x="528" y="188" font-size="9" font-weight="800" fill="#334155" letter-spacing="1" text-anchor="middle">STOCK</text>
  <text x="608" y="188" font-size="9" font-weight="800" fill="#334155" letter-spacing="1" text-anchor="end">STATUS</text>

  <!-- Row 1 - normal -->
  <rect x="12" y="200" width="616" height="48" rx="8" fill="#131929" stroke="rgba(255,255,255,0.04)" stroke-width="1"/>
  <rect x="24" y="212" width="36" height="24" rx="6" fill="rgba(99,102,241,0.15)"/>
  <text x="42" y="228" font-size="14" text-anchor="middle">📱</text>
  <text x="68" y="222" font-size="11" font-weight="700" fill="white">iPhone 15 Pro Max 256GB</text>
  <text x="68" y="237" font-size="9" fill="#475569">New · Space Black</text>
  <text x="300" y="228" font-size="10" fill="#475569">890 1234 5678</text>
  <text x="400" y="228" font-size="10" fill="#94a3b8">$850.00</text>
  <text x="460" y="228" font-size="10" font-weight="700" fill="white">$999.00</text>
  <text x="528" y="228" font-size="11" font-weight="800" fill="white" text-anchor="middle">14</text>
  <rect x="567" y="216" width="54" height="18" rx="9" fill="rgba(52,211,153,0.15)"/>
  <text x="594" y="228" font-size="8.5" font-weight="800" fill="#34d399" text-anchor="middle">In Stock</text>

  <!-- Row 2 - low stock -->
  <rect x="12" y="252" width="616" height="48" rx="8" fill="rgba(251,191,36,0.04)" stroke="rgba(251,191,36,0.12)" stroke-width="1"/>
  <rect x="24" y="264" width="36" height="24" rx="6" fill="rgba(251,191,36,0.12)"/>
  <text x="42" y="280" font-size="14" text-anchor="middle">🎧</text>
  <text x="68" y="274" font-size="11" font-weight="700" fill="white">AirPods Pro 2nd Gen</text>
  <text x="68" y="289" font-size="9" fill="#475569">New · White · MagSafe Case</text>
  <text x="300" y="280" font-size="10" fill="#475569">789 0123 4567</text>
  <text x="400" y="280" font-size="10" fill="#94a3b8">$145.00</text>
  <text x="460" y="280" font-size="10" font-weight="700" fill="white">$179.00</text>
  <text x="528" y="280" font-size="11" font-weight="800" fill="#fbbf24" text-anchor="middle">2</text>
  <rect x="558" y="268" width="64" height="18" rx="9" fill="rgba(251,191,36,0.15)"/>
  <text x="590" y="280" font-size="8.5" font-weight="800" fill="#fbbf24" text-anchor="middle">⚠ Low Stock</text>

  <!-- Row 3 - out of stock -->
  <rect x="12" y="304" width="616" height="48" rx="8" fill="rgba(239,68,68,0.04)" stroke="rgba(239,68,68,0.12)" stroke-width="1"/>
  <rect x="24" y="316" width="36" height="24" rx="6" fill="rgba(239,68,68,0.12)"/>
  <text x="42" y="332" font-size="14" text-anchor="middle">⌚</text>
  <text x="68" y="326" font-size="11" font-weight="700" fill="white">Apple Watch Series 9 45mm</text>
  <text x="68" y="341" font-size="9" fill="#475569">New · Midnight Aluminium</text>
  <text x="300" y="332" font-size="10" fill="#475569">678 9012 3456</text>
  <text x="400" y="332" font-size="10" fill="#94a3b8">$310.00</text>
  <text x="460" y="332" font-size="10" font-weight="700" fill="white">$399.00</text>
  <text x="528" y="332" font-size="11" font-weight="800" fill="#f87171" text-anchor="middle">0</text>
  <rect x="556" y="320" width="66" height="18" rx="9" fill="rgba(239,68,68,0.15)"/>
  <text x="589" y="332" font-size="8.5" font-weight="800" fill="#f87171" text-anchor="middle">Out of Stock</text>

  <!-- Row 4 - normal -->
  <rect x="12" y="356" width="616" height="48" rx="8" fill="#131929" stroke="rgba(255,255,255,0.04)" stroke-width="1"/>
  <rect x="24" y="368" width="36" height="24" rx="6" fill="rgba(99,102,241,0.15)"/>
  <text x="42" y="384" font-size="14" text-anchor="middle">💻</text>
  <text x="68" y="378" font-size="11" font-weight="700" fill="white">Samsung Galaxy S24 Ultra 256GB</text>
  <text x="68" y="393" font-size="9" fill="#475569">New · Titanium Black</text>
  <text x="300" y="384" font-size="10" fill="#475569">567 8901 2345</text>
  <text x="400" y="384" font-size="10" fill="#94a3b8">$760.00</text>
  <text x="460" y="384" font-size="10" font-weight="700" fill="white">$899.00</text>
  <text x="528" y="384" font-size="11" font-weight="800" fill="white" text-anchor="middle">9</text>
  <rect x="567" y="372" width="54" height="18" rx="9" fill="rgba(52,211,153,0.15)"/>
  <text x="594" y="384" font-size="8.5" font-weight="800" fill="#34d399" text-anchor="middle">In Stock</text>

  <!-- Row 5 - low -->
  <rect x="12" y="408" width="616" height="48" rx="8" fill="rgba(251,191,36,0.04)" stroke="rgba(251,191,36,0.12)" stroke-width="1"/>
  <rect x="24" y="420" width="36" height="24" rx="6" fill="rgba(99,102,241,0.15)"/>
  <text x="42" y="436" font-size="14" text-anchor="middle">🔌</text>
  <text x="68" y="430" font-size="11" font-weight="700" fill="white">MacBook Pro 14" M3 Pro 512GB</text>
  <text x="68" y="445" font-size="9" fill="#475569">New · Space Grey</text>
  <text x="300" y="436" font-size="10" fill="#475569">456 7890 1234</text>
  <text x="400" y="436" font-size="10" fill="#94a3b8">$1,600</text>
  <text x="460" y="436" font-size="10" font-weight="700" fill="white">$1,999</text>
  <text x="528" y="436" font-size="11" font-weight="800" fill="#fbbf24" text-anchor="middle">3</text>
  <rect x="558" y="424" width="64" height="18" rx="9" fill="rgba(251,191,36,0.15)"/>
  <text x="590" y="436" font-size="8.5" font-weight="800" fill="#fbbf24" text-anchor="middle">⚠ Low Stock</text>

  <!-- Pagination -->
  <text x="320" y="470" font-size="9" fill="#334155" text-anchor="middle">Showing 1–5 of 248 products · Page 1 of 50</text>
</svg>
